<?xml version="1.0" encoding="utf-8"?>
<!-- Generator: Adobe Illustrator 22.1.0, SVG Export Plug-In . SVG Version: 6.00 Build 0)  -->
<svg version="1.1" id="Layer_1" xmlns="http://www.w3.org/2000/svg" xmlns:xlink="http://www.w3.org/1999/xlink" x="0px" y="0px"
	 viewBox="0 0 841.9 595.3" style="enable-background:new 0 0 841.9 595.3;" xml:space="preserve">
<style type="text/css">
	.st0{fill:#FFFFFF;}
	.st1{fill:#A4C439;}
</style>
<g>
	<path class="st0" d="M287.6,382c-17.2,0-31.1-13.9-31.1-31.1l0-95.2c0-17.1,13.9-31.1,31.1-31.1c8.3,0,16.1,3.2,22,9.1
		c5.9,5.9,9.1,13.7,9.1,22l0,95.2c0,8.3-3.2,16.1-9.1,22C303.7,378.7,295.9,382,287.6,382"/>
	<path class="st0" d="M287.6,232.9c-12.6,0-22.7,10.2-22.7,22.7l0,95.2c0,12.6,10.2,22.7,22.7,22.8c12.6,0,22.7-10.2,22.7-22.8
		l0-95.2C310.3,243.1,300.1,232.9,287.6,232.9"/>
	<path class="st0" d="M531.5,237.6l-8.4,0l-204.8,0l-8.4,0l0-8.4c0-34.3,18.7-66.2,49.3-85.1l-11.9-21.7c-1.5-2.5-1.8-5.8-1-8.7
		c0.9-2.9,2.9-5.5,5.6-6.9c1.6-0.9,3.5-1.4,5.4-1.4c4.2,0,8.1,2.3,10.1,6l12.5,22.7c12.9-4.7,26.5-7.1,40.6-7.1
		c14.3,0,28,2.4,40.9,7.2l12.4-22.7c2-3.7,5.9-6,10.1-6c1.9,0,3.8,0.5,5.5,1.4c2.8,1.5,4.8,4,5.6,7c0.9,3,0.5,6.1-1,8.8l-11.9,21.7
		c30.6,18.9,49.3,50.8,49.3,85.1L531.5,237.6z"/>
	<path class="st0" d="M470.9,147.4l15.9-29c0.8-1.5,0.3-3.5-1.2-4.3c-1.6-0.8-3.5-0.3-4.3,1.3l-16,29.3c-13.5-6-28.6-9.4-44.5-9.3
		c-15.9,0-31,3.3-44.4,9.3l-16-29.2c-0.8-1.5-2.8-2.1-4.3-1.3c-1.5,0.8-2.1,2.8-1.3,4.3l15.9,29c-31.2,16.1-52.3,46.7-52.3,81.9
		l204.8,0C523.1,194.1,502.1,163.5,470.9,147.4 M374.1,192.2c-4.7,0-8.6-3.8-8.6-8.6c0-4.7,3.8-8.6,8.6-8.6c4.7,0,8.6,3.9,8.6,8.6
		C382.7,188.4,378.9,192.2,374.1,192.2 M467.4,192.2c-4.7,0-8.6-3.8-8.6-8.6c0-4.7,3.8-8.6,8.6-8.6c4.7,0,8.6,3.9,8.6,8.6
		C475.9,188.3,472.1,192.2,467.4,192.2"/>
	<path class="st0" d="M382.7,490.5c-17.1,0-31.1-13.9-31.1-31.1l0-42l-8.2,0c-8.7,0-16.9-3.4-23.1-9.5c-6.2-6.2-9.6-14.3-9.5-23.1
		l0-147.5l0-8.4l8.4,0l203.3,0l8.4,0l0,8.4l0,147.5c0,18-14.6,32.6-32.6,32.6l-8.2,0l0,42c0,17.1-13.9,31.1-31.1,31.1
		c-8.3,0-16.1-3.2-22-9.1c-5.9-5.9-9.1-13.7-9.1-22l0-42l-14,0v42C413.8,476.5,399.8,490.5,382.7,490.5"/>
	<path class="st0" d="M319.2,384.8c0,13.4,10.8,24.3,24.3,24.3l16.5,0l0,50.4c0,12.5,10.2,22.7,22.7,22.7
		c12.6,0,22.7-10.2,22.7-22.8l0-50.4l30.7,0l0,50.4c0,12.5,10.2,22.7,22.7,22.7c12.6,0,22.7-10.2,22.7-22.7l0-50.4l16.6,0
		c13.4,0,24.3-10.9,24.3-24.3l0-147.6l-203.3,0L319.2,384.8z"/>
	<path class="st0" d="M553.9,381.9c-17.1,0-31.1-13.9-31.1-31.1l0-95.2c0-17.2,13.9-31.1,31.1-31.1c17.2,0,31.1,13.9,31.1,31.1
		l0,95.2C585,368,571.1,381.9,553.9,381.9"/>
	<path class="st0" d="M553.9,232.9c-12.6,0-22.7,10.2-22.7,22.7l0,95.2c0,12.6,10.2,22.7,22.7,22.7c12.6,0,22.7-10.2,22.7-22.7
		l0-95.2C576.6,243.1,566.5,232.9,553.9,232.9"/>
	<path class="st1" d="M287.6,232.9c-12.6,0-22.7,10.2-22.7,22.7l0,95.2c0,12.6,10.2,22.7,22.7,22.7c12.6,0,22.7-10.2,22.7-22.7
		l0-95.2C310.3,243.1,300.1,232.9,287.6,232.9 M470.9,147.4l15.9-29c0.8-1.5,0.3-3.4-1.2-4.3c-1.5-0.8-3.5-0.3-4.3,1.3l-16,29.3
		c-13.5-6-28.6-9.4-44.6-9.4c-15.9,0-31,3.3-44.4,9.3l-16-29.2c-0.8-1.5-2.8-2.1-4.3-1.3c-1.5,0.8-2.1,2.8-1.3,4.3l15.9,29
		c-31.2,16.1-52.3,46.7-52.3,81.9l204.8,0C523.1,194.1,502.1,163.5,470.9,147.4 M374.1,192.2c-4.7,0-8.6-3.8-8.6-8.6
		c0-4.7,3.8-8.6,8.6-8.6c4.7,0,8.6,3.9,8.6,8.6C382.7,188.4,378.9,192.2,374.1,192.2 M467.4,192.2c-4.7,0-8.6-3.8-8.6-8.6
		c0-4.7,3.8-8.6,8.6-8.6c4.7,0,8.6,3.9,8.6,8.6C475.9,188.3,472.1,192.2,467.4,192.2 M319.1,237.2l0,147.6
		c0,13.4,10.8,24.3,24.3,24.3l16.5,0l0,50.4c0,12.5,10.2,22.7,22.7,22.7c12.6,0,22.7-10.2,22.7-22.8l0-50.4l30.7,0l0,50.4
		c0,12.5,10.2,22.7,22.7,22.7c12.6,0,22.7-10.2,22.7-22.7l0-50.4l16.6,0c13.4,0,24.3-10.8,24.3-24.3l0-147.6L319.1,237.2z
		 M576.6,255.6c0-12.6-10.2-22.7-22.7-22.7c-12.6,0-22.7,10.2-22.7,22.7l0,95.2c0,12.6,10.2,22.7,22.7,22.7
		c12.6,0,22.7-10.2,22.7-22.7L576.6,255.6z"/>
</g>
</svg>
